<svg width="320" height="240" viewBox="0 0 320 240" xmlns="http://www.w3.org/2000/svg">
  <defs>
    <linearGradient id="cup" x1="0" y1="0" x2="0" y2="1">
      <stop offset="0%" stop-color="#1F2937"/>
      <stop offset="100%" stop-color="#111827"/>
    </linearGradient>
    <linearGradient id="steam" x1="0" y1="0" x2="0" y2="1">
      <stop offset="0%" stop-color="#E2E8F0" stop-opacity="0.92"/>
      <stop offset="100%" stop-color="#E2E8F0" stop-opacity="0"/>
    </linearGradient>
  </defs>
  <rect width="320" height="240" rx="30" fill="#070B12"/>
  <path d="M82 176c0-26 22-48 50-48h84c28 0 50 22 50 48v6c0 10-8 18-18 18H100c-10 0-18-8-18-18v-6Z" fill="url(#cup)" stroke="#2D3748" stroke-width="2"/>
  <path d="M106 132c0-16 12-30 28-30h64c16 0 28 14 28 30v10H106v-10Z" fill="#0F172A"/>
  <path d="M106 136h132v14H106z" fill="#0B1220"/>
  <path d="M188 74c2-24 20-36 30-42 10-6 24-4 34 4" fill="none" stroke="url(#steam)" stroke-width="8" stroke-linecap="round">
    <animate attributeName="d" dur="4s" repeatCount="indefinite" values="M188 74c2-24 20-36 30-42 10-6 24-4 34 4; M184 66c2-22 18-38 28-44 10-6 24-8 34 2; M188 74c2-24 20-36 30-42 10-6 24-4 34 4"/>
  </path>
  <path d="M166 78c1-18 14-28 22-32 8-4 20-3 28 3" fill="none" stroke="url(#steam)" stroke-width="6" stroke-linecap="round" opacity="0.75">
    <animate attributeName="d" dur="4s" repeatCount="indefinite" values="M166 78c1-18 14-28 22-32 8-4 20-3 28 3; M164 70c1-16 12-32 20-36 8-4 18-6 26 3; M166 78c1-18 14-28 22-32 8-4 20-3 28 3"/>
  </path>
  <rect x="90" y="180" width="140" height="14" rx="7" fill="#0F172A"/>
  <circle cx="232" cy="166" r="20" fill="none" stroke="#374151" stroke-width="10"/>
  <circle cx="232" cy="166" r="16" fill="#111827"/>
  <text x="160" y="220" fill="#94A3B8" font-family="Consolas, monospace" font-size="14">pause / caffeine</text>
</svg>
