<svg width="1200" height="360" viewBox="0 0 1200 360" xmlns="http://www.w3.org/2000/svg">
  <defs>
    <radialGradient id="sky" cx="50%" cy="30%" r="75%">
      <stop offset="0%" stop-color="#131A23"/>
      <stop offset="100%" stop-color="#05070B"/>
    </radialGradient>
    <radialGradient id="planetGlow" cx="50%" cy="50%" r="55%">
      <stop offset="0%" stop-color="#4E84FF" stop-opacity="0.28"/>
      <stop offset="100%" stop-color="#0B1123" stop-opacity="0"/>
    </radialGradient>
    <linearGradient id="planet" x1="0" y1="0" x2="1" y2="1">
      <stop offset="0%" stop-color="#1A2434"/>
      <stop offset="100%" stop-color="#08101A"/>
    </linearGradient>
    <linearGradient id="moon" x1="0" y1="0" x2="1" y2="0">
      <stop offset="0%" stop-color="#121821"/>
      <stop offset="100%" stop-color="#090E15"/>
    </linearGradient>
    <filter id="soft" x="-20%" y="-20%" width="140%" height="140%">
      <feGaussianBlur stdDeviation="6" result="blur"/>
      <feMerge>
        <feMergeNode in="blur"/>
        <feMergeNode in="SourceGraphic"/>
      </feMerge>
    </filter>
  </defs>
  <rect width="1200" height="360" fill="url(#sky)"/>
  <g opacity="0.4">
    <circle cx="94" cy="54" r="2" fill="#6BA7FF"/>
    <circle cx="210" cy="102" r="1.5" fill="#84B8FF"/>
    <circle cx="348" cy="76" r="1.5" fill="#86C2FF"/>
    <circle cx="562" cy="34" r="1.8" fill="#5B8EFF"/>
    <circle cx="1102" cy="90" r="2" fill="#5BA1FF"/>
    <circle cx="968" cy="42" r="1.6" fill="#7DA9FF"/>
    <circle cx="764" cy="148" r="1.8" fill="#739EFF"/>
  </g>
  <circle cx="920" cy="100" r="134" fill="url(#planet)"/>
  <circle cx="920" cy="100" r="134" fill="url(#planetGlow)" filter="url(#soft)"/>
  <circle cx="896" cy="84" r="112" fill="none" stroke="#2C4EA8" stroke-width="1.6" opacity="0.35"/>
  <circle cx="874" cy="66" r="72" fill="none" stroke="#4A78FF" stroke-width="0.9" opacity="0.23"/>
  <path d="M0 300 C140 260 260 238 460 276 C620 300 780 256 900 298 C980 320 1200 278 1200 360 L0 360 Z" fill="url(#moon)"/>
  <path d="M100 310 C220 280 340 292 452 318 C570 344 692 324 820 350 C920 372 1100 324 1200 340 L1200 360 L0 360 Z" fill="#0A1017" opacity="0.92"/>
  <g transform="translate(242 182)">
    <circle cx="0" cy="0" r="6" fill="#5B84FF" opacity="0.8"/>
    <circle cx="38" cy="-12" r="3" fill="#84B8FF" opacity="0.8"/>
    <circle cx="-42" cy="-8" r="2" fill="#6DB0FF" opacity="0.8"/>
  </g>
  <g transform="translate(485 178)">
    <path d="M0 0c30-22 80-18 110 12 22 22 26 56 14 84-14 32-42 54-76 56-28 2-54-14-68-38-18-30-16-70 20-94Z" fill="#0D1625"/>
    <path d="M20 16c24-12 54-10 78 4 18 10 28 30 26 50-3 20-16 34-34 42-18 8-38 6-54-6-16-12-24-32-20-50 2-10 8-20 14-24Z" fill="#131B2F"/>
    <path d="M24 18l-14 76 12 4 16-58 20 26 6-10-18-26z" fill="#1C2737" opacity="0.92"/>
    <rect x="58" y="44" width="88" height="56" rx="16" fill="#0A111B" stroke="#2A405D" stroke-width="1.4"/>
    <path d="M62 62h80" stroke="#4FB4FF" stroke-width="2" stroke-linecap="round"/>
    <path d="M62 82h60" stroke="#5B7FFF" stroke-width="2" stroke-linecap="round"/>
    <path d="M62 102h72" stroke="#6EB0FF" stroke-width="2" stroke-linecap="round"/>
    <rect x="48" y="98" width="24" height="20" rx="8" fill="#0D141F"/>
    <rect x="134" y="108" width="16" height="14" rx="6" fill="#0F1720"/>
    <path d="M72 118c18-12 48-6 64 8" stroke="#77BCFF" stroke-width="1.8" fill="none" opacity="0.9"/>
  </g>
  <path d="M500 260c18-18 48-22 76-18" stroke="#4D8BFF" stroke-width="1.3" opacity="0.5" fill="none"/>
  <g transform="translate(520 170)">
    <path d="M0 0c24-18 52-14 76 6" stroke="#4F92FF" stroke-width="2" fill="none" opacity="0.7"/>
    <circle cx="82" cy="-6" r="4" fill="#5B95FF" opacity="0.72"/>
  </g>
  <g transform="translate(92 210)">
    <rect x="0" y="0" width="280" height="10" rx="5" fill="#0C1220"/>
    <rect x="12" y="24" width="260" height="8" rx="4" fill="#0D1321"/>
    <rect x="8" y="44" width="140" height="8" rx="4" fill="#0D1321"/>
  </g>
  <text x="94" y="96" fill="#E8EEF6" font-family="Consolas, monospace" font-size="48" font-weight="700" letter-spacing="0.12">Arthur Duarte</text>
  <text x="94" y="144" fill="#90A0BC" font-family="Consolas, monospace" font-size="20">Why not you?</text>
</svg>