<svg width="260" height="220" viewBox="0 0 260 220" xmlns="http://www.w3.org/2000/svg">
  <defs>
    <linearGradient id="mugBody" x1="0" y1="0" x2="0" y2="1">
      <stop offset="0%" stop-color="#11161E"/>
      <stop offset="100%" stop-color="#0A1018"/>
    </linearGradient>
    <linearGradient id="rim" x1="0" y1="0" x2="1" y2="0">
      <stop offset="0%" stop-color="#3A4D6C"/>
      <stop offset="100%" stop-color="#0E1623"/>
    </linearGradient>
  </defs>
  <rect width="260" height="220" rx="30" fill="#070B11"/>
  <ellipse cx="132" cy="170" rx="86" ry="10" fill="#0E1320" opacity="0.8"/>
  <path d="M72 92c0-22 16-34 44-34h40c28 0 44 12 44 34v50c0 10-8 18-18 18H90c-10 0-18-8-18-18V92Z" fill="url(#mugBody)" stroke="#1B2533" stroke-width="1.8"/>
  <path d="M72 92c0-18 16-26 44-26h40c28 0 44 8 44 26" fill="none" stroke="url(#rim)" stroke-width="6"/>
  <path d="M74 92c0 14 22 22 46 22h40c24 0 46-8 46-22" fill="#111A27"/>
  <path d="M176 110c22 0 38 18 38 40s-16 40-38 40" fill="none" stroke="#0E1726" stroke-width="16"/>
  <path d="M180 112c16 0 26 12 26 28s-10 28-26 28" fill="none" stroke="#111B28" stroke-width="10"/>
  <path d="M94 88c6-18 24-24 42-24s36 8 42 24" fill="none" stroke="#30446D" stroke-width="1.4"/>
  <path d="M118 84c0-6 8-14 18-14s18 8 18 14" fill="none" stroke="#4D76A3" stroke-width="1.4"/>
  <g opacity="0.7">
    <path d="M122 62c-2-12 2-22 10-28" stroke="#8BBEFF" stroke-width="2" fill="none"/>
    <path d="M132 52c2-14 10-22 18-26" stroke="#7DB1FF" stroke-width="2" fill="none"/>
    <path d="M144 46c4-10 12-16 18-18" stroke="#6CA8FF" stroke-width="2" fill="none"/>
  </g>
  <ellipse cx="136" cy="104" rx="26" ry="8" fill="#0C1320" opacity="0.9"/>
  <path d="M90 170c16 10 44 14 70 10 26-4 50-18 68-34" stroke="#0F1724" stroke-width="5" fill="none" opacity="0.5"/>
  <text x="60" y="210" fill="#8E9FBA" font-family="Consolas, monospace" font-size="12">minimal, dark, precise</text>
</svg>